<svg width="244" height="244" viewBox="0 0 244 244" fill="none" xmlns="http://www.w3.org/2000/svg">
<rect width="244" height="244" rx="40" fill="#24F3D2"/>
<path d="M193.344 188.354C195.053 190.78 193.646 194.217 190.833 194.723L173.45 198.362H173.35L162.799 214.639C161.192 217.065 157.675 217.166 155.967 214.74L128.235 174.504L165.713 148.219L193.344 188.354Z" fill="#AF20AF"/>
<path d="M57.0307 188.354C55.32 190.78 56.7288 194.217 59.5464 194.723L76.9555 198.362H77.0562L87.6224 214.639C89.2324 217.065 92.7545 217.166 94.4652 214.74L122.139 174.504L84.6034 148.219L57.0307 188.354Z" fill="#AF20AF"/>
<path d="M50.5011 108.624C50.5011 112.724 41.87 117.471 42.5174 121.355C43.1647 125.239 52.8746 126.965 54.1693 130.634C55.4639 134.518 48.7749 141.638 50.5011 145.091C52.4431 148.543 62.153 147.249 64.5265 150.269C66.9001 153.506 62.8003 162.353 65.6054 165.158C68.4105 168.179 77.2573 163.863 80.7097 166.237C83.9464 168.61 82.6517 178.32 86.3199 180.047C89.7723 181.773 96.8929 174.868 100.777 176.163C104.445 177.242 106.387 186.952 110.487 187.599C114.587 188.246 119.118 179.399 123.002 179.399C127.102 179.399 131.849 188.03 135.733 187.383C139.617 186.736 141.343 177.026 145.011 175.731C148.895 174.436 156.016 181.126 159.468 179.399C162.92 177.457 161.626 167.747 164.647 165.374C167.883 163 176.73 167.1 179.535 164.295C182.34 161.274 178.025 152.427 180.398 149.191C182.772 145.954 192.482 147.249 194.208 143.58C195.934 140.128 189.029 133.007 190.324 129.123C191.403 125.455 201.113 123.513 201.76 119.413C202.407 115.313 193.561 110.782 193.561 106.898C193.561 102.798 202.192 98.0513 201.544 94.1673C200.897 90.2834 191.187 88.5571 189.892 84.8889C188.598 81.0049 195.287 73.8843 193.561 70.4319C191.619 66.9794 181.909 68.2741 179.535 65.2532C177.162 62.0166 181.261 53.1697 178.456 50.3646C175.651 47.5595 166.804 51.875 163.568 49.7173C160.331 47.3437 161.626 37.6337 157.958 35.9075C154.505 34.1813 147.385 41.0862 143.501 39.7915C139.832 38.7127 137.89 29.0026 133.791 28.3553C129.691 27.708 125.16 36.5549 121.276 36.5549C117.176 36.5549 112.429 27.9238 108.545 28.5711C104.661 29.2185 102.935 38.9284 99.2665 40.2231C95.3825 41.5177 88.2619 34.8287 84.8095 36.5549C81.3571 38.4969 82.6517 48.2068 79.6309 50.5804C76.3942 52.9539 67.5474 48.8542 64.7423 51.6593C61.9372 54.4644 66.2528 63.3112 64.095 66.5479C61.7215 69.7846 52.0115 68.4899 50.2853 72.1581C48.5591 75.6105 55.4639 82.7312 54.1693 86.6152C53.0904 90.2834 43.3805 92.2254 42.7332 96.3251C41.6543 100.209 50.2853 104.74 50.5011 108.624Z" fill="#284EE8"/>
<g opacity="0.7">
<circle cx="122.749" cy="108.587" r="46.9497" fill="url(#paint0_linear_1248_6419)"/>
<circle cx="122.749" cy="108.587" r="46.9497" fill="black" fill-opacity="0.2"/>
</g>
<defs>
<linearGradient id="paint0_linear_1248_6419" x1="122.749" y1="61.6368" x2="122.749" y2="155.536" gradientUnits="userSpaceOnUse">
<stop stop-color="#284EE8"/>
<stop offset="0.813663" stop-color="#62CBA5"/>
</linearGradient>
</defs>
</svg>
