<svg width="180" height="180" viewBox="0 0 180 180" fill="none" xmlns="http://www.w3.org/2000/svg">
    <path fill-rule="evenodd" clip-rule="evenodd"
          d="M90 168.535C133.374 168.535 168.535 133.374 168.535 90C168.535 46.6263 133.374 11.465 90 11.465C46.6263 11.465 11.465 46.6263 11.465 90C11.465 133.374 46.6263 168.535 90 168.535ZM90 180C139.706 180 180 139.706 180 90C180 40.2944 139.706 0 90 0C40.2944 0 0 40.2944 0 90C0 139.706 40.2944 180 90 180Z"
          fill="url(#paint0_linear_514_224)"/>
    <path fill-rule="evenodd" clip-rule="evenodd"
          d="M45.8584 67.0371C45.8584 71.451 49.4366 75.0292 53.8505 75.0292L90.205 75.0292C77.3857 75.0541 67.0013 85.4538 67.0013 98.279C67.0013 111.119 77.4106 121.529 90.2512 121.529C103.092 121.529 113.501 111.119 113.501 98.279C113.501 85.4538 103.117 75.0541 90.2973 75.0292L126.506 75.0292C130.92 75.0292 134.498 71.451 134.498 67.0371C134.498 62.6231 130.92 59.0449 126.506 59.0449L53.8505 59.0449C49.4366 59.0449 45.8584 62.6231 45.8584 67.0371Z"
          fill="url(#paint1_linear_514_224)"/>
    <defs>
        <linearGradient id="paint0_linear_514_224" x1="90" y1="0" x2="90" y2="180" gradientUnits="userSpaceOnUse">
            <stop stop-color="#24F3D2"/>
            <stop offset="1" stop-color="#D611F3"/>
        </linearGradient>
        <linearGradient id="paint1_linear_514_224" x1="89.9985" y1="126.975" x2="89.9985" y2="52.166"
                        gradientUnits="userSpaceOnUse">
            <stop stop-color="#24F3D2"/>
            <stop offset="1" stop-color="#D611F3"/>
        </linearGradient>
    </defs>
</svg>
