<?xml version="1.0" standalone="no"?>
<!DOCTYPE svg PUBLIC "-//W3C//DTD SVG 20010904//EN"
 "http://www.w3.org/TR/2001/REC-SVG-20010904/DTD/svg10.dtd">
<svg version="1.0" xmlns="http://www.w3.org/2000/svg"
 width="270.000000pt" height="270.000000pt" viewBox="0 0 270.000000 270.000000"
 preserveAspectRatio="xMidYMid meet">
<metadata>
Created by potrace 1.14, written by Peter Selinger 2001-2017
</metadata>
<g transform="translate(0.000000,270.000000) scale(0.100000,-0.100000)"
fill="#000000" stroke="none">
<path d="M1175 2689 c-96 -14 -124 -20 -187 -38 -320 -93 -581 -283 -759 -552
-157 -236 -228 -476 -227 -757 1 -164 33 -337 88 -477 6 -16 11 -32 11 -35 0
-3 23 -48 51 -101 175 -336 481 -581 848 -683 54 -15 71 -18 160 -33 88 -15
350 -8 445 11 486 100 868 434 1024 896 45 132 63 239 67 395 4 175 -14 300
-66 456 -45 137 -82 213 -158 327 -195 294 -491 495 -847 574 -98 21 -358 32
-450 17z m355 -174 c281 -55 465 -150 650 -335 100 -99 164 -188 223 -305 38
-77 84 -198 93 -248 27 -148 31 -191 28 -304 -3 -140 -11 -194 -50 -323 -107
-352 -395 -646 -748 -767 -39 -13 -84 -26 -101 -29 -16 -3 -50 -10 -75 -15
-72 -17 -278 -18 -376 -3 -473 74 -847 415 -969 884 -39 149 -41 373 -5 538
46 211 159 412 319 572 184 183 405 297 652 334 85 13 295 14 359 1z"/>
<path d="M785 1809 c-87 -14 -126 -121 -70 -187 14 -17 38 -34 53 -39 15 -5
134 -9 265 -8 130 0 237 -2 237 -5 0 -3 -23 -13 -50 -23 -71 -25 -160 -114
-187 -187 -28 -75 -33 -131 -18 -204 17 -79 45 -130 102 -183 139 -129 348
-126 482 8 157 157 127 423 -59 538 -27 17 -61 33 -75 37 -61 15 -18 19 218
19 250 1 252 1 284 24 70 52 65 152 -10 196 -29 18 -65 19 -583 19 -303 1
-568 -2 -589 -5z"/>
</g>
</svg>
