<svg width="137" height="93" viewBox="0 0 137 93" fill="none" xmlns="http://www.w3.org/2000/svg">
<g id="choose">
<g id="Rectangle 507" filter="url(#filter0_f_3528_6339)">
<rect x="20" y="33" width="97" height="40" rx="20" fill="white" fill-opacity="0.1"/>
</g>
<g id="1">
<path d="M14.6094 33V28.05H19.8234V14.784H22.5954L15.1704 19.008V13.398L21.5724 9.735H25.8954V28.05H30.7464V33H14.6094Z" fill="#24F3D2" fill-opacity="0.4"/>
<path d="M11.6064 36.531H31.4064V37.983H11.6064V36.531Z" fill="#24F3D2" fill-opacity="0.4"/>
</g>
<g id="certf" opacity="0.6">
<g id="cert1">
<g id="Group">
<path id="Vector" d="M45.7157 60.5158C43.2135 60.2308 41.7699 58.9962 41.0962 56.6218L41 56.5268C41 41.0458 41 25.4699 41 9.98896C41.1925 8.08945 43.021 6.18995 45.042 6C53.896 6 62.6537 6 71.5077 6C71.9889 6.3799 72.3738 6.7598 72.855 7.23468C76.5121 10.7488 80.0729 14.3578 83.73 17.8719C84.2112 18.3468 84.4037 18.8217 84.4037 19.4865C84.4037 25.4699 84.4037 31.3584 84.4037 37.3418C84.3074 37.5318 84.2112 37.6267 84.0187 37.6267C83.4413 37.7217 82.9601 37.9117 82.3827 38.0066C81.9015 38.1016 81.709 38.0066 81.709 37.5318C81.709 37.3418 81.709 37.1519 81.709 36.8669C81.709 31.7383 81.709 26.5146 81.709 21.386C81.709 21.1011 81.8052 20.8161 81.5165 20.6262C81.2278 20.5312 80.9391 20.5312 80.7466 20.5312C78.8218 20.5312 76.8971 20.5312 74.9723 20.5312C72.7588 20.5312 71.1227 19.4865 70.1603 17.492C69.8716 16.8272 69.7754 16.1623 69.7754 15.4975C69.7754 13.503 69.7754 11.5086 69.7754 9.60906C69.7754 8.75428 69.7754 8.75428 68.9092 8.75428C61.4989 8.75428 53.9922 8.75428 46.5818 8.75428C44.8496 8.75428 44.0796 9.60906 44.0796 11.2236C44.0796 25.8498 44.0796 40.571 44.0796 55.1972C44.0796 56.9067 44.8496 57.6665 46.5818 57.6665C57.4568 57.6665 68.2356 57.6665 79.1105 57.6665C79.4955 57.6665 79.8805 57.6665 80.2654 57.7615C80.6504 57.9514 80.8428 58.2364 81.0353 58.5213C81.4203 58.9962 81.8052 59.471 82.1902 60.0409C82.3827 60.3258 82.3827 60.5158 81.9977 60.5158C81.9015 60.5158 81.8052 60.5158 81.8052 60.5158C70.0641 60.5158 58.323 60.5158 46.5818 60.5158C45.9082 60.5158 45.8119 60.5158 45.7157 60.5158Z" fill="white"/>
<path id="Vector_2" d="M45.7158 60.5148C50.4315 60.5148 55.1472 60.5148 59.9592 60.5148C67.0808 60.5148 74.2025 60.5148 81.2279 60.5148C81.4204 60.5148 81.6129 60.5148 81.9978 60.5148C81.2279 59.6601 80.6505 58.7103 79.9768 57.9505C79.6881 57.7606 79.4956 57.4756 79.3031 57.0957C77.7633 54.1515 76.8972 51.0173 76.8972 47.6932C76.8972 45.5088 76.8972 43.2293 76.8972 41.0449C76.8972 40.0952 77.2821 39.4303 78.1483 39.1454C78.9182 38.8605 79.6881 38.5756 80.458 38.2906C81.3242 38.0057 81.3242 38.0057 81.3242 37.056C81.3242 31.8323 81.3242 26.7037 81.3242 21.48C81.3242 21.1951 81.2279 20.8152 81.5166 20.5303C81.5166 20.7202 81.5166 20.9102 81.5166 21.1951C81.5166 26.6087 81.5166 32.1172 81.5166 37.5308C81.5166 38.0057 81.6129 38.1957 82.0941 38.0057C82.7677 37.8158 83.4414 37.6258 84.1151 37.4359C85.3662 37.3409 86.6173 37.1509 87.8684 37.056C90.4668 36.961 92.9691 37.2459 95.375 37.8158C96.9148 38.1957 98.4547 38.7655 99.8982 39.3354C100.668 39.6203 100.957 40.0952 100.957 40.9499C100.957 43.4193 101.053 45.7937 100.957 48.263C100.572 56.146 96.7224 61.8445 89.6007 65.3586C89.1195 65.5485 88.7345 65.5485 88.2534 65.3586C86.0399 64.3138 84.0188 62.9842 82.3828 61.2746C81.9978 60.7998 81.5166 60.7048 80.9392 60.7048C69.3906 60.7048 57.8419 60.7048 46.2933 60.7048C46.197 60.6098 45.9083 60.7048 45.7158 60.5148Z" fill="#24F3D2"/>
<path id="Vector_3" d="M81.6134 20.5323C81.6134 20.7223 81.6134 20.9122 81.6134 21.1971C81.6134 26.6107 81.6134 32.0243 81.6134 37.4379C81.6134 38.0077 81.421 38.1977 80.9398 38.3876C79.9774 38.6726 79.015 39.0525 78.0526 39.4324C77.4752 39.7173 77.0902 40.1922 77.0902 40.857C77.0902 43.3264 77.0902 45.8907 77.0902 48.36C77.1865 51.5892 78.0526 54.6284 79.6887 57.4777C79.7849 57.6676 79.8811 57.8576 79.9774 57.9525C79.7849 57.9525 79.5924 57.9525 79.3999 57.9525C68.4287 57.9525 57.3613 57.9525 46.39 57.9525C44.4653 57.9525 43.5991 56.7179 43.5991 55.1983C43.5991 40.5721 43.5991 25.9459 43.5991 11.3197C43.5991 9.42021 44.4653 8.56543 46.39 8.56543C53.9929 8.56543 61.4995 8.56543 69.1024 8.56543C69.5836 8.56543 69.7761 8.6604 69.7761 9.23026C69.7761 11.3197 69.7761 13.4092 69.7761 15.5936C69.7761 18.3479 71.8933 20.4373 74.6842 20.4373C76.8977 20.4373 79.015 20.4373 81.2285 20.4373C81.2285 20.4373 81.421 20.4373 81.6134 20.5323Z" fill="#0D0D0D"/>
<path id="Vector_4" d="M72.2773 10.5586C74.6833 12.933 77.1855 15.4023 79.5915 17.7767C79.5915 17.8717 79.399 17.7767 79.3028 17.7767C77.763 17.7767 76.3194 17.7767 74.7795 17.7767C73.2397 17.7767 72.2773 16.827 72.2773 15.3074C72.2773 13.7878 72.2773 12.1732 72.2773 10.5586Z" fill="#0D0D0D"/>
<path id="Vector_5" d="M98.5508 45.4154C98.5508 47.5049 98.647 49.6893 98.0696 51.7787C96.8185 56.6225 93.9313 60.2315 89.5044 62.6059C89.2156 62.7959 89.0232 62.7959 88.6382 62.6059C83.73 59.9466 80.7466 55.9577 79.7842 50.5441C79.303 48.0747 79.5918 45.6054 79.5918 43.041C79.5918 41.3315 79.5918 41.4264 81.2278 40.8566C84.4037 39.7169 87.6758 39.337 91.0442 39.6219C93.5464 39.8119 95.8561 40.3817 98.1658 41.3315C98.4546 41.4264 98.5508 41.6164 98.5508 41.9013C98.5508 43.041 98.5508 44.2757 98.5508 45.4154Z" fill="#0D0D0D"/>
<path id="Vector_6" d="M66.8878 28.2237C69.2938 29.4584 71.0261 31.3579 71.8923 33.9222C72.3735 35.3468 72.3735 36.7715 72.2772 38.1961C72.2772 38.7659 71.796 39.1458 71.3148 39.2408C71.0261 39.3358 70.7374 39.3358 70.5449 39.3358C65.2518 39.3358 60.0549 39.3358 54.7618 39.3358C53.3182 39.3358 52.9332 38.9559 52.9332 37.5313C52.837 34.2071 53.8956 31.4529 56.5903 29.3634C57.1677 28.8885 57.7452 28.6036 58.4188 28.2237C55.6279 25.3744 56.2053 21.5754 58.5151 19.486C60.921 17.3015 64.5781 17.3015 66.8878 19.486C69.1013 21.7654 69.4863 25.4694 66.8878 28.2237Z" fill="white"/>
<path id="Vector_7" d="M62.5564 53.4872C60.3429 53.4872 58.1294 53.4872 55.9159 53.4872C55.7235 53.4872 55.531 53.4872 55.2423 53.4872C54.4724 53.3922 54.0874 52.9173 54.0874 52.1575C54.0874 51.4927 54.6648 51.0178 55.3385 50.9229C55.531 50.9229 55.6272 50.9229 55.8197 50.9229C60.4392 50.9229 64.9624 50.9229 69.5818 50.9229C70.1593 50.9229 70.6405 51.1128 70.9292 51.6827C71.1217 52.1575 71.1217 52.6324 70.8329 53.0123C70.6405 53.2972 70.3518 53.4872 69.9668 53.4872C69.6781 53.4872 69.3894 53.4872 69.1006 53.4872C66.9834 53.4872 64.7699 53.4872 62.5564 53.4872Z" fill="white"/>
<path id="Vector_8" d="M55.4357 46.3632C54.6658 46.3632 54.1846 45.7933 54.1846 45.1285C54.1846 44.3687 54.762 43.7988 55.4357 43.7988C56.1093 43.7988 56.783 44.3687 56.783 45.1285C56.783 45.7933 56.2056 46.3632 55.4357 46.3632Z" fill="white"/>
<path id="Vector_9" d="M62.5568 46.3635C61.7869 46.3635 61.3057 45.7936 61.3057 45.0338C61.3057 44.369 61.8831 43.7042 62.653 43.7991C63.3267 43.7991 63.9041 44.369 63.9041 45.1288C63.9041 45.7936 63.3267 46.3635 62.5568 46.3635Z" fill="white"/>
<path id="Vector_10" d="M69.7746 46.3632C69.0047 46.3632 68.4272 45.7933 68.4272 45.1285C68.4272 44.3687 69.0047 43.7988 69.6783 43.7988C70.352 43.7988 71.0257 44.3687 71.0257 45.0335C71.1219 45.7933 70.5445 46.3632 69.7746 46.3632Z" fill="white"/>
<path id="Vector_11" d="M94.2214 48.7391C94.2214 49.119 94.0289 49.4989 93.7402 49.7839C92.1041 51.3984 90.5643 52.918 88.9283 54.5326C88.2546 55.1974 87.5809 55.1974 86.811 54.5326C86.0411 53.7728 85.2712 53.013 84.5013 52.2532C83.9238 51.5884 83.8276 50.9236 84.405 50.3537C84.9825 49.7839 85.6561 49.8788 86.3298 50.4487C86.7148 50.8286 87.0035 51.1135 87.3884 51.4934C87.6772 51.8733 87.9659 51.8733 88.3508 51.4934C89.5057 50.2587 90.7568 49.119 91.9117 47.8843C92.6816 47.1245 93.9327 47.4095 94.2214 48.4542C94.2214 48.5492 94.2214 48.6442 94.2214 48.7391Z" fill="#24F3D2"/>
<path id="Vector_12" d="M62.6538 36.7726C60.4404 36.7726 58.2269 36.7726 56.1096 36.7726C55.7247 36.7726 55.6284 36.6776 55.6284 36.2977C55.8209 33.6384 57.7457 30.7892 61.2103 30.0294C64.4824 29.3646 67.7545 30.9791 69.1018 33.9234C69.4868 34.6832 69.583 35.443 69.7755 36.2977C69.8718 36.6776 69.6793 36.7726 69.3906 36.7726C66.9846 36.6776 64.7711 36.7726 62.6538 36.7726Z" fill="#0D0D0D"/>
<path id="Vector_13" d="M66.0221 23.8549C66.0221 25.7544 64.4823 27.274 62.5575 27.274C60.6327 27.274 58.9967 25.6594 59.0929 23.7599C59.0929 21.8604 60.6327 20.3408 62.5575 20.3408C64.5785 20.4358 66.0221 21.9554 66.0221 23.8549Z" fill="#0D0D0D"/>
</g>
</g>
</g>
</g>
<defs>
<filter id="filter0_f_3528_6339" x="0" y="13" width="137" height="80" filterUnits="userSpaceOnUse" color-interpolation-filters="sRGB">
<feFlood flood-opacity="0" result="BackgroundImageFix"/>
<feBlend mode="normal" in="SourceGraphic" in2="BackgroundImageFix" result="shape"/>
<feGaussianBlur stdDeviation="10" result="effect1_foregroundBlur_3528_6339"/>
</filter>
</defs>
</svg>
