<svg width="116" height="73" viewBox="0 0 116 73" fill="none" xmlns="http://www.w3.org/2000/svg">
<g id="choose">
<g id="Rectangle 507" filter="url(#filter0_f_3528_6339)">
<rect x="19" y="33" width="97" height="40" rx="20" fill="white" fill-opacity="0.1"/>
</g>
<path id="1" d="M13.6094 33V28.05H18.8234V14.784H21.5954L14.1704 19.008V13.398L20.5724 9.735H24.8954V28.05H29.7464V33H13.6094Z" fill="#24F3D2" fill-opacity="0.4"/>
<g id="certf" opacity="0.6">
<g id="cert1">
<g id="Group">
<path id="Vector" d="M44.7157 60.5158C42.2135 60.2308 40.7699 58.9962 40.0962 56.6218L40 56.5268C40 41.0458 40 25.4699 40 9.98896C40.1925 8.08945 42.021 6.18995 44.042 6C52.896 6 61.6537 6 70.5077 6C70.9889 6.3799 71.3738 6.7598 71.855 7.23468C75.5121 10.7488 79.0729 14.3578 82.73 17.8719C83.2112 18.3468 83.4037 18.8217 83.4037 19.4865C83.4037 25.4699 83.4037 31.3584 83.4037 37.3418C83.3074 37.5318 83.2112 37.6267 83.0187 37.6267C82.4413 37.7217 81.9601 37.9117 81.3827 38.0066C80.9015 38.1016 80.709 38.0066 80.709 37.5318C80.709 37.3418 80.709 37.1519 80.709 36.8669C80.709 31.7383 80.709 26.5146 80.709 21.386C80.709 21.1011 80.8052 20.8161 80.5165 20.6262C80.2278 20.5312 79.9391 20.5312 79.7466 20.5312C77.8218 20.5312 75.8971 20.5312 73.9723 20.5312C71.7588 20.5312 70.1227 19.4865 69.1603 17.492C68.8716 16.8272 68.7754 16.1623 68.7754 15.4975C68.7754 13.503 68.7754 11.5086 68.7754 9.60906C68.7754 8.75428 68.7754 8.75428 67.9092 8.75428C60.4989 8.75428 52.9922 8.75428 45.5818 8.75428C43.8496 8.75428 43.0796 9.60906 43.0796 11.2236C43.0796 25.8498 43.0796 40.571 43.0796 55.1972C43.0796 56.9067 43.8496 57.6665 45.5818 57.6665C56.4568 57.6665 67.2356 57.6665 78.1105 57.6665C78.4955 57.6665 78.8805 57.6665 79.2654 57.7615C79.6504 57.9514 79.8428 58.2364 80.0353 58.5213C80.4203 58.9962 80.8052 59.471 81.1902 60.0409C81.3827 60.3258 81.3827 60.5158 80.9977 60.5158C80.9015 60.5158 80.8052 60.5158 80.8052 60.5158C69.0641 60.5158 57.323 60.5158 45.5818 60.5158C44.9082 60.5158 44.8119 60.5158 44.7157 60.5158Z" fill="white"/>
<path id="Vector_2" d="M44.7158 60.5148C49.4315 60.5148 54.1472 60.5148 58.9592 60.5148C66.0808 60.5148 73.2025 60.5148 80.2279 60.5148C80.4204 60.5148 80.6129 60.5148 80.9978 60.5148C80.2279 59.6601 79.6505 58.7103 78.9768 57.9505C78.6881 57.7606 78.4956 57.4756 78.3031 57.0957C76.7633 54.1515 75.8972 51.0173 75.8972 47.6932C75.8972 45.5088 75.8972 43.2293 75.8972 41.0449C75.8972 40.0952 76.2821 39.4303 77.1483 39.1454C77.9182 38.8605 78.6881 38.5756 79.458 38.2906C80.3242 38.0057 80.3242 38.0057 80.3242 37.056C80.3242 31.8323 80.3242 26.7037 80.3242 21.48C80.3242 21.1951 80.2279 20.8152 80.5166 20.5303C80.5166 20.7202 80.5166 20.9102 80.5166 21.1951C80.5166 26.6087 80.5166 32.1172 80.5166 37.5308C80.5166 38.0057 80.6129 38.1957 81.0941 38.0057C81.7677 37.8158 82.4414 37.6258 83.1151 37.4359C84.3662 37.3409 85.6173 37.1509 86.8684 37.056C89.4668 36.961 91.9691 37.2459 94.375 37.8158C95.9148 38.1957 97.4547 38.7655 98.8982 39.3354C99.6682 39.6203 99.9569 40.0952 99.9569 40.9499C99.9569 43.4193 100.053 45.7937 99.9569 48.263C99.5719 56.146 95.7224 61.8445 88.6007 65.3586C88.1195 65.5485 87.7345 65.5485 87.2533 65.3586C85.0399 64.3138 83.0188 62.9842 81.3828 61.2746C80.9978 60.7998 80.5166 60.7048 79.9392 60.7048C68.3906 60.7048 56.8419 60.7048 45.2933 60.7048C45.197 60.6098 44.9083 60.7048 44.7158 60.5148Z" fill="#24F3D2"/>
<path id="Vector_3" d="M80.6134 20.5323C80.6134 20.7223 80.6134 20.9122 80.6134 21.1971C80.6134 26.6107 80.6134 32.0243 80.6134 37.4379C80.6134 38.0077 80.421 38.1977 79.9398 38.3876C78.9774 38.6726 78.015 39.0525 77.0526 39.4324C76.4752 39.7173 76.0902 40.1922 76.0902 40.857C76.0902 43.3264 76.0902 45.8907 76.0902 48.36C76.1865 51.5892 77.0526 54.6284 78.6887 57.4777C78.7849 57.6676 78.8811 57.8576 78.9774 57.9525C78.7849 57.9525 78.5924 57.9525 78.3999 57.9525C67.4287 57.9525 56.3613 57.9525 45.39 57.9525C43.4653 57.9525 42.5991 56.7179 42.5991 55.1983C42.5991 40.5721 42.5991 25.9459 42.5991 11.3197C42.5991 9.42021 43.4653 8.56543 45.39 8.56543C52.9929 8.56543 60.4995 8.56543 68.1024 8.56543C68.5836 8.56543 68.7761 8.6604 68.7761 9.23026C68.7761 11.3197 68.7761 13.4092 68.7761 15.5936C68.7761 18.3479 70.8933 20.4373 73.6842 20.4373C75.8977 20.4373 78.015 20.4373 80.2285 20.4373C80.2285 20.4373 80.421 20.4373 80.6134 20.5323Z" fill="#0D0D0D"/>
<path id="Vector_4" d="M71.2773 10.5586C73.6833 12.933 76.1855 15.4023 78.5915 17.7767C78.5915 17.8717 78.399 17.7767 78.3028 17.7767C76.763 17.7767 75.3194 17.7767 73.7795 17.7767C72.2397 17.7767 71.2773 16.827 71.2773 15.3074C71.2773 13.7878 71.2773 12.1732 71.2773 10.5586Z" fill="#0D0D0D"/>
<path id="Vector_5" d="M97.5508 45.4154C97.5508 47.5049 97.647 49.6893 97.0696 51.7787C95.8185 56.6225 92.9313 60.2315 88.5044 62.6059C88.2156 62.7959 88.0232 62.7959 87.6382 62.6059C82.73 59.9466 79.7466 55.9577 78.7842 50.5441C78.303 48.0747 78.5918 45.6054 78.5918 43.041C78.5918 41.3315 78.5918 41.4264 80.2278 40.8566C83.4037 39.7169 86.6758 39.337 90.0442 39.6219C92.5464 39.8119 94.8561 40.3817 97.1658 41.3315C97.4546 41.4264 97.5508 41.6164 97.5508 41.9013C97.5508 43.041 97.5508 44.2757 97.5508 45.4154Z" fill="#0D0D0D"/>
<path id="Vector_6" d="M65.8878 28.2237C68.2938 29.4584 70.0261 31.3579 70.8923 33.9222C71.3735 35.3468 71.3735 36.7715 71.2772 38.1961C71.2772 38.7659 70.796 39.1458 70.3148 39.2408C70.0261 39.3358 69.7374 39.3358 69.5449 39.3358C64.2518 39.3358 59.0549 39.3358 53.7618 39.3358C52.3182 39.3358 51.9332 38.9559 51.9332 37.5313C51.837 34.2071 52.8956 31.4529 55.5903 29.3634C56.1677 28.8885 56.7452 28.6036 57.4188 28.2237C54.6279 25.3744 55.2053 21.5754 57.5151 19.486C59.921 17.3015 63.5781 17.3015 65.8878 19.486C68.1013 21.7654 68.4863 25.4694 65.8878 28.2237Z" fill="white"/>
<path id="Vector_7" d="M61.5564 53.4872C59.3429 53.4872 57.1294 53.4872 54.9159 53.4872C54.7235 53.4872 54.531 53.4872 54.2423 53.4872C53.4724 53.3922 53.0874 52.9173 53.0874 52.1575C53.0874 51.4927 53.6648 51.0178 54.3385 50.9229C54.531 50.9229 54.6272 50.9229 54.8197 50.9229C59.4392 50.9229 63.9624 50.9229 68.5818 50.9229C69.1593 50.9229 69.6405 51.1128 69.9292 51.6827C70.1217 52.1575 70.1217 52.6324 69.8329 53.0123C69.6405 53.2972 69.3518 53.4872 68.9668 53.4872C68.6781 53.4872 68.3894 53.4872 68.1006 53.4872C65.9834 53.4872 63.7699 53.4872 61.5564 53.4872Z" fill="white"/>
<path id="Vector_8" d="M54.4357 46.3632C53.6658 46.3632 53.1846 45.7933 53.1846 45.1285C53.1846 44.3687 53.762 43.7988 54.4357 43.7988C55.1093 43.7988 55.783 44.3687 55.783 45.1285C55.783 45.7933 55.2056 46.3632 54.4357 46.3632Z" fill="white"/>
<path id="Vector_9" d="M61.5568 46.3635C60.7869 46.3635 60.3057 45.7936 60.3057 45.0338C60.3057 44.369 60.8831 43.7042 61.653 43.7991C62.3267 43.7991 62.9041 44.369 62.9041 45.1288C62.9041 45.7936 62.3267 46.3635 61.5568 46.3635Z" fill="white"/>
<path id="Vector_10" d="M68.7746 46.3632C68.0047 46.3632 67.4272 45.7933 67.4272 45.1285C67.4272 44.3687 68.0047 43.7988 68.6783 43.7988C69.352 43.7988 70.0257 44.3687 70.0257 45.0335C70.1219 45.7933 69.5445 46.3632 68.7746 46.3632Z" fill="white"/>
<path id="Vector_11" d="M93.2214 48.7391C93.2214 49.119 93.0289 49.4989 92.7402 49.7839C91.1041 51.3984 89.5643 52.918 87.9283 54.5326C87.2546 55.1974 86.5809 55.1974 85.811 54.5326C85.0411 53.7728 84.2712 53.013 83.5013 52.2532C82.9238 51.5884 82.8276 50.9236 83.405 50.3537C83.9825 49.7839 84.6561 49.8788 85.3298 50.4487C85.7148 50.8286 86.0035 51.1135 86.3884 51.4934C86.6772 51.8733 86.9659 51.8733 87.3508 51.4934C88.5057 50.2587 89.7568 49.119 90.9117 47.8843C91.6816 47.1245 92.9327 47.4095 93.2214 48.4542C93.2214 48.5492 93.2214 48.6442 93.2214 48.7391Z" fill="#24F3D2"/>
<path id="Vector_12" d="M61.6538 36.7726C59.4404 36.7726 57.2269 36.7726 55.1096 36.7726C54.7247 36.7726 54.6284 36.6776 54.6284 36.2977C54.8209 33.6384 56.7457 30.7892 60.2103 30.0294C63.4824 29.3646 66.7545 30.9791 68.1018 33.9234C68.4868 34.6832 68.583 35.443 68.7755 36.2977C68.8718 36.6776 68.6793 36.7726 68.3906 36.7726C65.9846 36.6776 63.7711 36.7726 61.6538 36.7726Z" fill="#0D0D0D"/>
<path id="Vector_13" d="M65.0221 23.8549C65.0221 25.7544 63.4823 27.274 61.5575 27.274C59.6327 27.274 57.9967 25.6594 58.0929 23.7599C58.0929 21.8604 59.6327 20.3408 61.5575 20.3408C63.5785 20.4358 65.0221 21.9554 65.0221 23.8549Z" fill="#0D0D0D"/>
</g>
</g>
</g>
</g>
<defs>
<filter id="filter0_f_3528_6339" x="-1" y="13" width="137" height="80" filterUnits="userSpaceOnUse" color-interpolation-filters="sRGB">
<feFlood flood-opacity="0" result="BackgroundImageFix"/>
<feBlend mode="normal" in="SourceGraphic" in2="BackgroundImageFix" result="shape"/>
<feGaussianBlur stdDeviation="10" result="effect1_foregroundBlur_3528_6339"/>
</filter>
</defs>
</svg>
