<svg width="115" height="73" viewBox="0 0 115 73" fill="none" xmlns="http://www.w3.org/2000/svg">
<g id="complete">
<g id="Rectangle 509" filter="url(#filter0_f_3528_6341)">
<rect x="18" y="33" width="97" height="40" rx="20" fill="white" fill-opacity="0.1"/>
</g>
<path id="3" d="M19.8464 33.363C18.1964 33.363 16.6014 33.143 15.0614 32.703C13.5434 32.241 12.3224 31.625 11.3984 30.855L13.2464 26.367C14.2144 27.049 15.2374 27.555 16.3154 27.885C17.3934 28.215 18.5044 28.38 19.6484 28.38C20.8364 28.38 21.7274 28.182 22.3214 27.786C22.9154 27.368 23.2124 26.752 23.2124 25.938C23.2124 25.168 22.9374 24.596 22.3874 24.222C21.8594 23.848 21.0674 23.661 20.0114 23.661H15.9194V18.909H19.4174C20.3634 18.909 21.1114 18.711 21.6614 18.315C22.2114 17.897 22.4864 17.314 22.4864 16.566C22.4864 15.84 22.2224 15.29 21.6944 14.916C21.1664 14.542 20.3964 14.355 19.3844 14.355C17.2724 14.355 15.3584 15.026 13.6424 16.368L11.7944 11.946C12.7844 11.132 14.0054 10.505 15.4574 10.065C16.9094 9.603 18.4164 9.372 19.9784 9.372C22.5744 9.372 24.6094 9.944 26.0834 11.088C27.5574 12.21 28.2944 13.772 28.2944 15.774C28.2944 17.116 27.9094 18.271 27.1394 19.239C26.3914 20.207 25.3574 20.845 24.0374 21.153V20.691C25.5774 20.933 26.7874 21.582 27.6674 22.638C28.5474 23.672 28.9874 24.97 28.9874 26.532C28.9874 28.644 28.1734 30.316 26.5454 31.548C24.9174 32.758 22.6844 33.363 19.8464 33.363Z" fill="#24F3D2" fill-opacity="0.4"/>
<g id="finish" opacity="0.6">
<g id="Group">
<path id="Vector" d="M49.3131 50.1221C49.0001 49.809 48.6088 49.4177 48.2957 49.1047C47.8262 48.6351 47.7479 48.2438 48.0609 47.696C48.7653 46.3655 49.3914 45.0351 50.0957 43.7046C50.2523 43.3916 50.3305 43.3133 49.861 43.1568C46.9653 42.6089 44.0696 41.9046 41.1739 41.2785C40.3913 41.122 40 40.8089 40 40.1828C40 39.8698 40.1565 39.635 40.313 39.4002C42.8957 36.8176 45.4001 34.3132 47.9827 31.7306C48.2957 31.4175 48.6088 31.3393 49.0001 31.3393C51.2697 31.4175 53.5393 31.4958 55.8088 31.6523C56.9828 31.7306 57.6871 31.4958 58.4697 30.5567C63.7915 23.9827 70.6003 19.7566 78.7395 17.4087C81.3221 16.7044 83.983 16.2348 86.6439 16.0783C86.7222 16.0783 86.8787 16.0783 86.8787 16C87.3483 16 87.7396 16 88.2092 16C88.6005 16.0783 88.9135 16.313 88.9918 16.7826C88.9918 17.4087 88.9918 18.0348 88.9918 18.6609C88.757 19.2087 88.8353 19.8348 88.757 20.3827C88.2874 23.7479 87.4265 26.9566 86.2526 30.0871C84.0613 35.8785 80.7743 40.9655 76.1569 45.1133C75.3743 45.8177 74.5134 46.522 73.5742 47.1481C73.3395 47.3046 73.2612 47.4612 73.3394 47.696C73.496 50.3568 73.5742 52.9395 73.7308 55.6004C73.7308 56.2265 73.6525 56.696 73.1829 57.0873C70.7568 59.5135 68.2524 61.9396 65.8263 64.4439C65.5133 64.757 65.122 65.07 64.5741 64.9135C64.0263 64.757 63.8698 64.3657 63.7915 63.8178C63.1654 60.9222 62.5393 57.9482 61.9133 55.0525C61.835 54.6612 61.7567 54.7395 61.4437 54.8178C60.1915 55.5221 58.9393 56.2265 57.6871 56.9308C56.9045 57.3221 56.5915 57.3221 55.9654 56.696C55.6523 56.383 55.3393 56.0699 55.0262 55.7569C54.5567 55.4439 54.1654 54.9743 53.774 54.583C53.3827 54.1917 52.9914 53.8004 52.6001 53.409C52.2871 53.1743 52.0523 52.9395 51.8175 52.6264C51.1914 51.9221 50.4871 51.296 49.861 50.6699C49.5479 50.5134 49.3914 50.3568 49.3131 50.1221Z" fill="white"/>
<path id="Vector_2" d="M88.913 16.8617C88.7565 16.5487 88.4434 16.3139 88.1304 16.0791C88.913 16.0791 88.913 16.0791 88.913 16.8617Z" fill="#0D0D0D"/>
<path id="Vector_3" d="M49.3132 50.1221C50.1741 50.9047 50.9567 51.6873 51.7394 52.5482C51.5828 52.7047 51.4263 52.5482 51.2698 52.4699C50.0959 52.0003 48.7654 52.3917 48.1393 53.5656C46.8089 55.9134 45.5567 58.2613 44.2262 60.6091C44.148 60.6874 44.148 60.7657 44.148 60.9222C45.8697 59.983 47.5915 59.0439 49.3132 58.183C49.9393 57.7917 50.6437 57.4787 51.2698 57.0874C52.6002 56.383 53.0698 55.2091 52.522 53.8004C52.4437 53.6438 52.3654 53.5656 52.522 53.4091C53.3828 54.1917 54.1655 54.9743 54.9481 55.8352C54.9481 55.9134 54.8698 55.9134 54.8698 55.9917C54.4785 57.5569 53.3828 58.5743 51.9741 59.2787C48.6089 61.0787 45.2436 62.8787 41.8001 64.6787C41.4871 64.8353 41.174 64.9918 40.7827 64.8353C40.0784 64.6005 39.8436 63.8961 40.2349 63.1918C41.0175 61.7048 41.8784 60.2178 42.661 58.7308C43.8349 56.6178 44.9306 54.583 46.1045 52.4699C46.7306 51.296 47.6697 50.5916 48.9219 50.2003C49.0785 50.2786 49.1567 50.2003 49.3132 50.1221Z" fill="#24F3D2"/>
<path id="Vector_4" d="M63.0098 40.9651C62.6185 40.9651 62.3837 41.1216 62.149 41.4347C60.5837 42.9999 59.0968 44.4869 57.5315 46.0521C57.2967 46.2869 57.1402 46.2869 56.9054 46.0521C55.7315 44.8782 54.6358 43.7825 53.4619 42.6086C53.3054 42.4521 53.2271 42.3738 53.3837 42.0607C55.575 38.2259 57.9228 34.3911 60.8185 30.9476C64.1055 27.191 68.0186 24.2954 72.4795 22.0258C72.7143 21.8692 72.8708 21.9475 73.1056 22.1823C76.3143 25.391 79.523 28.5997 82.7318 31.8085C82.8883 31.965 82.9665 32.0433 82.8883 32.3563C80.8535 36.5824 78.1926 40.4172 74.5926 43.626C72.4795 45.5825 69.9751 47.0695 67.549 48.6347C65.9838 49.6521 64.4185 50.513 62.8533 51.5304C62.6185 51.6869 62.462 51.6869 62.3055 51.4521C61.2098 50.2782 60.0359 49.1825 58.9402 48.0869C58.7054 47.8521 58.7054 47.7738 58.9402 47.5391C60.5055 45.9738 62.0707 44.4086 63.6359 42.8434C64.1838 42.2955 64.1838 41.6694 63.7142 41.1999C63.5577 41.1216 63.3229 40.9651 63.0098 40.9651Z" fill="#0D0D0D"/>
<path id="Vector_5" d="M83.9833 30.0874C81.7137 27.8178 79.4441 25.5482 77.2528 23.2787C76.5485 22.5743 75.9224 21.9482 75.218 21.2439C75.0615 21.0873 74.9832 21.0091 75.2963 20.9308C77.6441 19.9917 79.992 19.2873 82.4963 18.8178C83.7485 18.583 85.0007 18.4264 86.3312 18.2699C86.879 18.1917 86.879 18.1917 86.8007 18.8178C86.6442 20.5395 86.3312 22.2613 85.9399 23.983C85.392 26.0178 84.7659 28.0526 83.9833 30.0874Z" fill="#0D0D0D"/>
<path id="Vector_6" d="M65.4351 61.7831C65.2003 60.6092 64.8872 59.4353 64.6525 58.2614C64.3394 56.8527 64.0264 55.444 63.7133 53.957C63.635 53.7222 63.635 53.5657 63.8698 53.4092C66.2959 52.0004 68.6438 50.5135 70.9134 49.0265C70.9134 49.0265 70.9916 49.0265 71.0699 48.9482C71.1482 50.2787 71.2264 51.6091 71.3047 52.9396C71.3829 53.8005 71.3829 54.5831 71.3829 55.444C71.3829 55.6787 71.3829 55.8353 71.1482 55.9918C69.2699 57.8701 67.3916 59.7483 65.4351 61.6266C65.5916 61.7049 65.5133 61.7049 65.4351 61.7831Z" fill="#0D0D0D"/>
<path id="Vector_7" d="M43.2085 39.5564C45.2433 37.5216 47.1216 35.6433 49.0781 33.6868C49.2346 33.5303 49.3912 33.5303 49.5477 33.5303C51.6608 33.6085 53.7738 33.7651 55.8869 33.8433C55.9651 33.9998 55.8869 34.0781 55.8086 34.0781C54.3216 36.2694 52.9129 38.539 51.6608 40.8869C51.5042 41.1999 51.3477 41.2782 50.9564 41.1999C48.3738 40.6521 45.7911 40.1042 43.2085 39.5564Z" fill="#0D0D0D"/>
<path id="Vector_8" d="M52.5218 53.4086C52.9131 54.1912 53.0696 55.0521 52.6783 55.913C52.4435 56.4608 52.0522 56.8521 51.5827 57.0869C49.0783 58.4174 46.5739 59.7478 44.0695 61.0783C43.9913 61.0783 43.9913 61.1565 43.913 61.1565C43.8348 61 43.9913 60.9217 43.9913 60.8435C45.3217 58.4174 46.6522 55.9912 47.9826 53.5651C48.687 52.313 50.174 51.8434 51.4261 52.4695C51.5044 52.5477 51.6609 52.5477 51.7392 52.626C51.974 52.8608 52.287 53.0956 52.5218 53.4086Z" fill="#0D0D0D"/>
<path id="Vector_9" d="M60.6608 52.8615C59.4868 53.4876 58.3912 54.1137 57.2173 54.818C57.0607 54.8963 56.9825 54.8963 56.8259 54.7398C56.0433 53.9571 55.339 53.1745 54.5564 52.4702C54.3998 52.3136 54.3998 52.2354 54.5564 52.0789C55.4172 51.218 56.3564 50.2788 57.139 49.418C58.3912 50.5136 59.4868 51.6876 60.6608 52.8615Z" fill="#0D0D0D"/>
<path id="Vector_10" d="M52.209 44.252C53.3829 45.4259 54.4786 46.5215 55.5742 47.6172C55.7308 47.7737 55.7308 47.852 55.5742 48.0085C54.7134 48.8694 53.9307 49.652 53.0699 50.5129C52.9133 50.6694 52.8351 50.6694 52.6786 50.5129C51.8959 49.7303 51.1916 49.0259 50.409 48.2433C50.2524 48.0868 50.2524 48.0085 50.3307 47.852C50.9568 46.6781 51.5829 45.5041 52.209 44.252Z" fill="#0D0D0D"/>
<path id="Vector_11" d="M65.1998 34.1564C65.1215 30.7129 68.0954 28.365 71.1476 28.4433C74.0433 28.5216 76.6259 31.1825 76.5477 34.2347C76.4694 37.4434 73.9651 39.8695 70.5998 39.8695C67.7041 39.8695 65.1998 37.1303 65.1998 34.1564Z" fill="white"/>
<path id="Vector_12" d="M74.4352 34.0784C74.5134 36.035 72.8699 37.6784 70.9134 37.6784C69.0351 37.7567 67.3916 36.1132 67.3134 34.3132C67.2351 32.2784 68.8003 30.5566 70.7569 30.5566C72.7917 30.5566 74.4352 32.1219 74.4352 34.0784Z" fill="#0D0D0D"/>
</g>
</g>
</g>
<defs>
<filter id="filter0_f_3528_6341" x="-2" y="13" width="137" height="80" filterUnits="userSpaceOnUse" color-interpolation-filters="sRGB">
<feFlood flood-opacity="0" result="BackgroundImageFix"/>
<feBlend mode="normal" in="SourceGraphic" in2="BackgroundImageFix" result="shape"/>
<feGaussianBlur stdDeviation="10" result="effect1_foregroundBlur_3528_6341"/>
</filter>
</defs>
</svg>
